<?xml version="1.0" encoding="us-ascii" standalone="no"?><svg xmlns="http://www.w3.org/2000/svg" xmlns:xlink="http://www.w3.org/1999/xlink" contentStyleType="text/css" height="397px" preserveAspectRatio="none" style="width:542px;height:397px;background:#FFFFFF;" version="1.1" viewBox="0 0 542 397" width="542px" zoomAndPan="magnify"><defs/><g><ellipse cx="275" cy="20" fill="#222222" rx="10" ry="10" style="stroke:#222222;stroke-width:1.0;"/><polygon fill="#F1F1F1" points="42.5,50,95.5,50,107.5,62,95.5,74,42.5,74,30.5,62,42.5,50" style="stroke:#181818;stroke-width:0.5;"/><text fill="#000000" font-family="sans-serif" font-size="11" lengthAdjust="spacing" textLength="29" x="73" y="84.2104">atom</text><text fill="#000000" font-family="sans-serif" font-size="11" lengthAdjust="spacing" textLength="53" x="42.5" y="65.8081">expr.type</text><rect fill="#F1F1F1" height="33.9688" rx="12.5" ry="12.5" style="stroke:#181818;stroke-width:0.5;" width="116" x="11" y="105.7104"/><text fill="#000000" font-family="sans-serif" font-size="12" lengthAdjust="spacing" textLength="96" x="21" y="126.8491">OUT expr.token</text><polygon fill="#F1F1F1" points="200,50,253,50,265,62,253,74,200,74,188,62,200,50" style="stroke:#181818;stroke-width:0.5;"/><text fill="#000000" font-family="sans-serif" font-size="11" lengthAdjust="spacing" textLength="28" x="230.5" y="84.2104">ope2</text><text fill="#000000" font-family="sans-serif" font-size="11" lengthAdjust="spacing" textLength="53" x="200" y="65.8081">expr.type</text><rect fill="#F1F1F1" height="33.9688" rx="12.5" ry="12.5" style="stroke:#181818;stroke-width:0.5;" width="54" x="199.5" y="105.7104"/><text fill="#000000" font-family="sans-serif" font-size="12" lengthAdjust="spacing" textLength="34" x="209.5" y="126.8491">PUSH</text><rect fill="#F1F1F1" height="33.9688" rx="12.5" ry="12.5" style="stroke:#181818;stroke-width:0.5;" width="179" x="137" y="169.585"/><text fill="#000000" font-family="sans-serif" font-size="12" lengthAdjust="spacing" textLength="159" x="147" y="190.7236">gen_outcircuit(expr.arg1)</text><rect fill="#F1F1F1" height="33.9688" rx="12.5" ry="12.5" style="stroke:#181818;stroke-width:0.5;" width="45" x="204" y="238.5537"/><text fill="#000000" font-family="sans-serif" font-size="12" lengthAdjust="spacing" textLength="25" x="214" y="259.6924">POP</text><rect fill="#F1F1F1" height="33.9688" rx="12.5" ry="12.5" style="stroke:#181818;stroke-width:0.5;" width="179" x="137" y="292.5225"/><text fill="#000000" font-family="sans-serif" font-size="12" lengthAdjust="spacing" textLength="159" x="147" y="313.6611">gen_outcircuit(expr.arg2)</text><polygon fill="#F1F1F1" points="389.5,50,442.5,50,454.5,62,442.5,74,389.5,74,377.5,62,389.5,50" style="stroke:#181818;stroke-width:0.5;"/><text fill="#000000" font-family="sans-serif" font-size="11" lengthAdjust="spacing" textLength="17" x="420" y="84.2104">list</text><text fill="#000000" font-family="sans-serif" font-size="11" lengthAdjust="spacing" textLength="53" x="389.5" y="65.8081">expr.type</text><rect fill="#F1F1F1" height="33.9688" rx="12.5" ry="12.5" style="stroke:#181818;stroke-width:0.5;" width="127" x="352.5" y="161.4209"/><text fill="#000000" font-family="sans-serif" font-size="12" lengthAdjust="spacing" textLength="107" x="362.5" y="182.5596">gen_outcircuit(e)</text><polygon fill="#F1F1F1" points="393,105.7104,439,105.7104,451,117.7104,439,129.7104,393,129.7104,381,117.7104,393,105.7104" style="stroke:#181818;stroke-width:0.5;"/><text fill="#000000" font-family="sans-serif" font-size="11" lengthAdjust="spacing" textLength="44" x="420" y="139.9209">&#27425;&#12398;&#35201;&#32032;</text><text fill="#000000" font-family="sans-serif" font-size="11" lengthAdjust="spacing" textLength="46" x="393" y="121.5186">expr.list</text><text fill="#000000" font-family="sans-serif" font-size="11" lengthAdjust="spacing" textLength="55" x="326" y="115.1162">&#12522;&#12473;&#12488;&#32066;&#31471;</text><ellipse cx="516.5" cy="217.6514" fill="none" rx="11" ry="11" style="stroke:#222222;stroke-width:1.0;"/><ellipse cx="516.5" cy="217.6514" fill="#222222" rx="6" ry="6" style="stroke:#111111;stroke-width:1.0;"/><ellipse cx="275" cy="376.4912" fill="none" rx="10" ry="10" style="stroke:#222222;stroke-width:1.5;"/><line style="stroke:#222222;stroke-width:2.5;" x1="268.8128" x2="281.1872" y1="370.304" y2="382.6784"/><line style="stroke:#222222;stroke-width:2.5;" x1="281.1872" x2="268.8128" y1="370.304" y2="382.6784"/><line style="stroke:#181818;stroke-width:1.0;" x1="226.5" x2="226.5" y1="139.6792" y2="169.585"/><polygon fill="#181818" points="222.5,159.585,226.5,169.585,230.5,159.585,226.5,163.585" style="stroke:#181818;stroke-width:1.0;"/><line style="stroke:#181818;stroke-width:1.0;" x1="226.5" x2="226.5" y1="203.5537" y2="238.5537"/><polygon fill="#181818" points="222.5,228.5537,226.5,238.5537,230.5,228.5537,226.5,232.5537" style="stroke:#181818;stroke-width:1.0;"/><line style="stroke:#181818;stroke-width:1.0;" x1="226.5" x2="226.5" y1="272.5225" y2="292.5225"/><polygon fill="#181818" points="222.5,282.5225,226.5,292.5225,230.5,282.5225,226.5,286.5225" style="stroke:#181818;stroke-width:1.0;"/><line style="stroke:#181818;stroke-width:1.0;" x1="416" x2="416" y1="129.7104" y2="161.4209"/><polygon fill="#181818" points="412,151.4209,416,161.4209,420,151.4209,416,155.4209" style="stroke:#181818;stroke-width:1.0;"/><line style="stroke:#181818;stroke-width:1.0;" x1="416" x2="416" y1="195.3896" y2="207.3896"/><line style="stroke:#181818;stroke-width:1.0;" x1="416" x2="491.5" y1="207.3896" y2="207.3896"/><polygon fill="#181818" points="487.5,170.0029,491.5,160.0029,495.5,170.0029,491.5,166.0029" style="stroke:#181818;stroke-width:1.0;"/><line style="stroke:#181818;stroke-width:1.0;" x1="491.5" x2="491.5" y1="117.7104" y2="207.3896"/><line style="stroke:#181818;stroke-width:1.0;" x1="491.5" x2="451" y1="117.7104" y2="117.7104"/><polygon fill="#181818" points="461,113.7104,451,117.7104,461,121.7104,457,117.7104" style="stroke:#181818;stroke-width:1.0;"/><line style="stroke:#181818;stroke-width:1.0;" x1="381" x2="340.5" y1="117.7104" y2="117.7104"/><polygon fill="#181818" points="336.5,156.0029,340.5,166.0029,344.5,156.0029,340.5,160.0029" style="stroke:#181818;stroke-width:1.0;"/><line style="stroke:#181818;stroke-width:1.0;" x1="340.5" x2="340.5" y1="117.7104" y2="219.3896"/><line style="stroke:#181818;stroke-width:1.0;" x1="340.5" x2="416" y1="219.3896" y2="219.3896"/><line style="stroke:#181818;stroke-width:1.0;" x1="416" x2="416" y1="219.3896" y2="346.4912"/><polygon fill="#181818" points="412,336.4912,416,346.4912,420,336.4912,416,340.4912" style="stroke:#181818;stroke-width:1.0;"/><line style="stroke:#181818;stroke-width:1.0;" x1="69" x2="69" y1="74" y2="105.7104"/><polygon fill="#181818" points="65,95.7104,69,105.7104,73,95.7104,69,99.7104" style="stroke:#181818;stroke-width:1.0;"/><line style="stroke:#181818;stroke-width:1.0;" x1="69" x2="69" y1="139.6792" y2="346.4912"/><polygon fill="#181818" points="65,336.4912,69,346.4912,73,336.4912,69,340.4912" style="stroke:#181818;stroke-width:1.0;"/><line style="stroke:#181818;stroke-width:1.0;" x1="226.5" x2="226.5" y1="74" y2="105.7104"/><polygon fill="#181818" points="222.5,95.7104,226.5,105.7104,230.5,95.7104,226.5,99.7104" style="stroke:#181818;stroke-width:1.0;"/><line style="stroke:#181818;stroke-width:1.0;" x1="226.5" x2="226.5" y1="326.4912" y2="346.4912"/><polygon fill="#181818" points="222.5,336.4912,226.5,346.4912,230.5,336.4912,226.5,340.4912" style="stroke:#181818;stroke-width:1.0;"/><line style="stroke:#181818;stroke-width:1.0;" x1="416" x2="416" y1="74" y2="105.7104"/><polygon fill="#181818" points="412,95.7104,416,105.7104,420,95.7104,416,99.7104" style="stroke:#181818;stroke-width:1.0;"/><line style="stroke:#181818;stroke-width:1.0;" x1="107.5" x2="188" y1="62" y2="62"/><polygon fill="#181818" points="178,58,188,62,178,66,182,62" style="stroke:#181818;stroke-width:1.0;"/><line style="stroke:#181818;stroke-width:1.0;" x1="265" x2="377.5" y1="62" y2="62"/><polygon fill="#181818" points="367.5,58,377.5,62,367.5,66,371.5,62" style="stroke:#181818;stroke-width:1.0;"/><line style="stroke:#181818;stroke-width:1.0;" x1="275" x2="275" y1="30" y2="35"/><line style="stroke:#181818;stroke-width:1.0;" x1="275" x2="69" y1="35" y2="35"/><line style="stroke:#181818;stroke-width:1.0;" x1="69" x2="69" y1="35" y2="50"/><polygon fill="#181818" points="65,40,69,50,73,40,69,44" style="stroke:#181818;stroke-width:1.0;"/><line style="stroke:#181818;stroke-width:1.0;" x1="454.5" x2="516.5" y1="62" y2="62"/><line style="stroke:#181818;stroke-width:1.0;" x1="516.5" x2="516.5" y1="62" y2="206.6514"/><polygon fill="#181818" points="512.5,196.6514,516.5,206.6514,520.5,196.6514,516.5,200.6514" style="stroke:#181818;stroke-width:1.0;"/><line style="stroke:#181818;stroke-width:1.0;" x1="69" x2="416" y1="346.4912" y2="346.4912"/><line style="stroke:#181818;stroke-width:1.0;" x1="275" x2="275" y1="346.4912" y2="366.4912"/><polygon fill="#181818" points="271,356.4912,275,366.4912,279,356.4912,275,360.4912" style="stroke:#181818;stroke-width:1.0;"/><!--SRC=[Aov9B2hXoanJq4YjA2ZIAwaiIDLKACb8pLFGI2p9pzNauhJo3mrHW4ZcPwVcMNEbvXIdOjMGNv1g1D8G41hiOGsaqrFpulDBIv8pYv9BCqiWwXEBqWqrGP81_W5ur1Xfuh4d9xEu16XFUKPcJYfK6Yoaa5cieF5ipSB7ZUjUB6jylcK1K16c3I3RK_DIeBeVDwzwtBJpSNF7ywrDprUlrmJRoiLPN99Vm0LKbPa68W40]--></g></svg>